<svg width="300" height="336" viewBox="0 0 300 336" fill="none" xmlns="http://www.w3.org/2000/svg">
<path d="M147.903 272.663C195.561 272.663 234.195 234.028 234.195 186.37C234.195 138.712 195.561 100.078 147.903 100.078C100.245 100.078 61.6108 138.712 61.6108 186.37C61.6108 234.028 100.245 272.663 147.903 272.663Z" fill="#2F2E41"/>
<path d="M118.178 311.78L92.0471 309.671L95.0734 255.245L121.204 257.354L118.178 311.78Z" fill="#2F2E41"/>
<path d="M153.192 260L127 261.118L129.003 308.045L155.195 306.927L153.192 260Z" fill="#2F2E41"/>
<path d="M170.206 325.075C172.353 320.645 165.291 312.788 154.434 307.526C143.576 302.265 133.034 301.591 130.887 306.021C128.74 310.452 135.802 318.308 146.66 323.57C157.517 328.831 168.059 329.505 170.206 325.075Z" fill="#2F2E41"/>
<path d="M130.502 326.067C133.498 320.743 127.402 311.631 116.888 305.714C106.373 299.797 95.4203 299.316 92.4245 304.64C89.4286 309.963 95.5239 319.076 106.039 324.993C116.553 330.91 127.506 331.391 130.502 326.067Z" fill="#2F2E41"/>
<path d="M158.968 196.9C175.256 196.9 188.461 183.696 188.461 167.408C188.461 151.12 175.256 137.916 158.968 137.916C142.68 137.916 129.476 151.12 129.476 167.408C129.476 183.696 142.68 196.9 158.968 196.9Z" fill="white"/>
<path d="M158.831 161.661C164.26 161.661 168.661 157.26 168.661 151.831C168.661 146.401 164.26 142 158.831 142C153.401 142 149 146.401 149 151.831C149 157.26 153.401 161.661 158.831 161.661Z" fill="#3F3D56"/>
<path d="M78.6703 133.728C74.3442 127.625 55.0778 133.849 35.6377 147.63C16.1976 161.41 3.94528 177.529 8.27138 183.631C12.5975 189.734 31.8638 183.51 51.3039 169.73C70.7441 155.95 82.9964 139.831 78.6703 133.728Z" fill="#2F2E41"/>
<path d="M230.596 135.975C225.179 141.134 234.11 159.304 250.545 176.56C266.979 193.815 284.692 203.62 290.109 198.461C295.526 193.302 286.595 175.132 270.161 157.876C253.727 140.621 236.013 130.816 230.596 135.975Z" fill="#2F2E41"/>
<path d="M128.461 229.078C126.68 230.428 126.521 231.968 128.018 233.359C129.515 234.749 132.546 235.877 136.444 236.494C140.342 237.111 144.788 237.166 148.803 236.647C152.819 236.129 156.075 235.079 157.856 233.729C161.565 230.918 155.753 229.295 147.635 228.011C139.518 226.726 132.17 226.267 128.461 229.078Z" fill="white"/>
<path d="M185.909 48.9091V48.6364C185.939 45.7424 186.242 43.4394 186.818 41.7273C187.394 40.0152 188.212 38.6288 189.273 37.5682C190.333 36.5076 191.606 35.5303 193.091 34.6364C193.985 34.0909 194.788 33.447 195.5 32.7045C196.212 31.947 196.773 31.0758 197.182 30.0909C197.606 29.1061 197.818 28.0152 197.818 26.8182C197.818 25.3333 197.47 24.0455 196.773 22.9545C196.076 21.8636 195.144 21.0227 193.977 20.4318C192.811 19.8409 191.515 19.5455 190.091 19.5455C188.848 19.5455 187.652 19.803 186.5 20.3182C185.348 20.8333 184.386 21.6439 183.614 22.75C182.841 23.8561 182.394 25.303 182.273 27.0909H176.545C176.667 24.5152 177.333 22.3106 178.545 20.4773C179.773 18.6439 181.386 17.2424 183.386 16.2727C185.402 15.303 187.636 14.8182 190.091 14.8182C192.758 14.8182 195.076 15.3485 197.045 16.4091C199.03 17.4697 200.561 18.9242 201.636 20.7727C202.727 22.6212 203.273 24.7273 203.273 27.0909C203.273 28.7576 203.015 30.2652 202.5 31.6136C202 32.9621 201.273 34.1667 200.318 35.2273C199.379 36.2879 198.242 37.2273 196.909 38.0455C195.576 38.8788 194.508 39.7576 193.705 40.6818C192.902 41.5909 192.318 42.6742 191.955 43.9318C191.591 45.1894 191.394 46.7576 191.364 48.6364V48.9091H185.909ZM188.818 62.3636C187.697 62.3636 186.735 61.9621 185.932 61.1591C185.129 60.3561 184.727 59.3939 184.727 58.2727C184.727 57.1515 185.129 56.1894 185.932 55.3864C186.735 54.5833 187.697 54.1818 188.818 54.1818C189.939 54.1818 190.902 54.5833 191.705 55.3864C192.508 56.1894 192.909 57.1515 192.909 58.2727C192.909 59.0152 192.72 59.697 192.341 60.3182C191.977 60.9394 191.485 61.4394 190.864 61.8182C190.258 62.1818 189.576 62.3636 188.818 62.3636Z" fill="#2F2E41"/>
<path d="M241.082 69.1451L241.203 68.9004C242.507 66.3168 243.795 64.3838 245.067 63.1014C246.339 61.819 247.685 60.936 249.105 60.4522C250.525 59.9684 252.098 59.653 253.825 59.506C254.868 59.411 255.873 59.1874 256.839 58.8354C257.813 58.4698 258.7 57.9354 259.502 57.2321C260.317 56.5355 260.989 55.6501 261.517 54.576C262.172 53.2435 262.428 51.934 262.284 50.6475C262.14 49.361 261.674 48.1952 260.888 47.1502C260.102 46.1051 259.07 45.2684 257.792 44.6399C256.677 44.0917 255.489 43.7947 254.228 43.7488C252.968 43.703 251.747 44.0059 250.565 44.6575C249.384 45.3091 248.344 46.4104 247.446 47.9613L242.307 45.4341C243.552 43.1762 245.123 41.492 247.02 40.3817C248.93 39.278 250.997 38.7323 253.219 38.7446C255.456 38.7636 257.675 39.3147 259.878 40.3977C262.271 41.5744 264.117 43.0732 265.417 44.8941C266.73 46.7217 267.461 48.7022 267.611 50.8357C267.774 52.9759 267.334 55.1065 266.291 57.2276C265.556 58.7232 264.66 59.9624 263.602 60.9452C262.559 61.9347 261.375 62.6947 260.05 63.2253C258.739 63.7626 257.305 64.1041 255.747 64.25C254.183 64.4095 252.837 64.7268 251.708 65.2019C250.586 65.6633 249.585 66.3781 248.704 67.3462C247.822 68.3142 246.954 69.6346 246.098 71.3072L245.977 71.5519L241.082 69.1451ZM237.756 82.5026C236.75 82.0079 236.064 81.223 235.697 80.1481C235.331 79.0731 235.395 78.0326 235.89 77.0264C236.385 76.0202 237.17 75.334 238.245 74.9677C239.32 74.6014 240.36 74.6657 241.366 75.1604C242.372 75.6551 243.059 76.44 243.425 77.515C243.791 78.5899 243.727 79.6305 243.232 80.6366C242.905 81.3029 242.434 81.8312 241.82 82.2215C241.219 82.6185 240.557 82.8499 239.832 82.9157C239.128 82.9746 238.436 82.8369 237.756 82.5026Z" fill="#2F2E41"/>
</svg>
