<svg width="230" height="377" viewBox="0 0 230 377" fill="none" xmlns="http://www.w3.org/2000/svg">
<path d="M88.8187 318.663C136.477 318.663 175.111 280.029 175.111 232.371C175.111 184.713 136.477 146.078 88.8187 146.078C41.1608 146.078 2.52637 184.713 2.52637 232.371C2.52637 280.029 41.1608 318.663 88.8187 318.663Z" fill="#2F2E41"/>
<path d="M27.3475 338.653L3.50244 327.759L24.9084 277.628L48.7535 288.522L27.3475 338.653Z" fill="#2F2E41"/>
<path d="M96.4428 310.31L72.5981 299.416L53.0798 342.138L76.9245 353.032L96.4428 310.31Z" fill="#2F2E41"/>
<path d="M80.5965 372.123C84.2824 369.499 81.5983 359.404 74.6012 349.574C67.6042 339.745 58.9439 333.904 55.258 336.528C51.572 339.152 54.2562 349.247 61.2532 359.076C68.2502 368.906 76.9105 374.747 80.5965 372.123Z" fill="#2F2E41"/>
<path d="M32.0125 358.198C35.6984 355.574 33.0143 345.479 26.0172 335.65C19.0202 325.82 10.3599 319.979 6.67401 322.603C2.98806 325.227 5.67221 335.322 12.6692 345.152C19.6663 354.981 28.3265 360.822 32.0125 358.198Z" fill="#2F2E41"/>
<path d="M99.8839 242.9C116.172 242.9 129.376 229.696 129.376 213.408C129.376 197.12 116.172 183.916 99.8839 183.916C83.5957 183.916 70.3916 197.12 70.3916 213.408C70.3916 229.696 83.5957 242.9 99.8839 242.9Z" fill="white"/>
<path d="M89.2399 209.987C94.6693 209.987 99.0707 205.586 99.0707 200.156C99.0707 194.727 94.6693 190.325 89.2399 190.325C83.8106 190.325 79.4092 194.727 79.4092 200.156C79.4092 205.586 83.8106 209.987 89.2399 209.987Z" fill="#3F3D56"/>
<path d="M221.062 200.435C216.241 194.715 197.563 202.528 179.343 217.885C161.122 233.243 150.26 250.329 155.082 256.049C159.903 261.769 178.581 253.956 196.801 238.599C215.022 223.241 225.884 206.155 221.062 200.435Z" fill="#2F2E41"/>
<path d="M42.191 204.281C49.2968 201.942 49.0192 181.697 41.5709 159.063C34.1226 136.428 22.3241 119.974 15.2183 122.312C8.11247 124.65 8.39009 144.895 15.8384 167.53C23.2867 190.165 35.0852 206.619 42.191 204.281Z" fill="#2F2E41"/>
<path d="M202.528 23.6534C205.78 42.6332 193.907 60.6727 175.459 66.1411C172.708 57.4166 167.283 50.0167 160.232 44.6823C164.865 32.1899 176.139 22.4201 190.596 20.0856L196.104 19.1963C199.15 18.7044 202.021 20.6962 202.528 23.6534ZM116.237 48.5751C115.73 45.6179 117.782 42.8313 120.829 42.3394L126.336 41.4501C147.627 38.0124 167.762 51.9826 171.303 72.6498L172.219 77.9963L176.8 104.728C177.307 107.686 175.255 110.472 172.208 110.964C169.162 111.456 166.291 109.464 165.784 106.507L161.204 79.7749C139.913 83.2126 119.779 69.2423 116.237 48.5751Z" fill="#7EAF57"/>
<path d="M95.6221 59.7389C98.9113 59.7389 101.578 57.1506 101.578 53.9577C101.578 50.7648 98.9113 48.1765 95.6221 48.1765C92.3329 48.1765 89.6665 50.7648 89.6665 53.9577C89.6665 57.1506 92.3329 59.7389 95.6221 59.7389Z" fill="#7EAF57"/>
<path d="M93.9196 97.127C93.099 96.7801 92.4385 96.1524 92.0637 95.3633C91.689 94.5743 91.6262 93.679 91.8873 92.848C91.9296 92.7205 91.9562 92.5887 91.9666 92.4553C91.9905 92.0745 91.8874 91.6964 91.6726 91.377C91.4578 91.0575 91.1427 90.8138 90.774 90.6817C90.4053 90.5497 90.0027 90.5365 89.6256 90.644C89.2486 90.7515 88.9172 90.974 88.6807 91.2786C88.5993 91.3867 88.5314 91.5037 88.4783 91.6272C88.1209 92.4238 87.4742 93.065 86.6614 93.4288C85.8485 93.7926 84.9263 93.8535 84.0702 93.6C83.9389 93.559 83.8031 93.5332 83.6656 93.5231C83.2734 93.4999 82.8839 93.6 82.5548 93.8085C82.2258 94.017 81.9746 94.3228 81.8386 94.6807C81.7026 95.0386 81.689 95.4295 81.7997 95.7955C81.9105 96.1615 82.1397 96.4831 82.4535 96.7128C82.5648 96.7918 82.6854 96.8577 82.8126 96.9092C83.6332 97.2562 84.2938 97.8839 84.6685 98.673C85.0433 99.462 85.1061 100.357 84.8449 101.188C84.8027 101.316 84.776 101.447 84.7656 101.581C84.7417 101.962 84.8448 102.34 85.0596 102.659C85.2744 102.979 85.5895 103.222 85.9582 103.355C86.3269 103.487 86.7296 103.5 87.1066 103.392C87.4836 103.285 87.815 103.062 88.0515 102.758C88.1329 102.65 88.2009 102.533 88.254 102.409C88.6113 101.612 89.258 100.971 90.0708 100.607C90.8837 100.244 91.8059 100.183 92.6621 100.436C92.7933 100.477 92.9291 100.503 93.0666 100.513C93.4588 100.536 93.8483 100.436 94.1774 100.228C94.5065 100.019 94.7577 99.7134 94.8937 99.3555C95.0297 98.9976 95.0433 98.6067 94.9325 98.2407C94.8218 97.8747 94.5925 97.5531 94.2787 97.3234C94.1674 97.2445 94.0469 97.1786 93.9196 97.127Z" fill="#F1F1F1"/>
<path d="M140.572 6.55499C139.751 6.20806 139.091 5.58033 138.716 4.79129C138.341 4.00226 138.279 3.10699 138.54 2.27593C138.582 2.14852 138.609 2.01672 138.619 1.88326C138.643 1.5025 138.54 1.1244 138.325 0.804963C138.11 0.485524 137.795 0.241742 137.426 0.10972C137.058 -0.0223029 136.655 -0.0355447 136.278 0.071964C135.901 0.179473 135.57 0.402003 135.333 0.706605C135.252 0.814669 135.184 0.931679 135.131 1.0552C134.773 1.85179 134.127 2.49301 133.314 2.85679C132.501 3.22057 131.579 3.2815 130.723 3.02801C130.591 2.98699 130.455 2.96116 130.318 2.95103C129.926 2.92786 129.536 3.02796 129.207 3.23646C128.878 3.44497 128.627 3.75081 128.491 4.10869C128.355 4.46658 128.341 4.85748 128.452 5.22348C128.563 5.58948 128.792 5.91111 129.106 6.14076C129.217 6.21973 129.338 6.28567 129.465 6.33721C130.286 6.68415 130.946 7.3119 131.321 8.10094C131.696 8.88997 131.758 9.78521 131.497 10.6163C131.455 10.7437 131.428 10.8755 131.418 11.0089C131.394 11.3897 131.497 11.7678 131.712 12.0872C131.927 12.4067 132.242 12.6505 132.611 12.7825C132.979 12.9145 133.382 12.9277 133.759 12.8202C134.136 12.7127 134.467 12.4902 134.704 12.1856C134.785 12.0775 134.853 11.9605 134.906 11.837C135.264 11.0404 135.91 10.3992 136.723 10.0354C137.536 9.67163 138.458 9.61067 139.314 9.86416C139.446 9.90516 139.581 9.931 139.719 9.94114C140.111 9.96433 140.501 9.86427 140.83 9.65577C141.159 9.44726 141.41 9.1414 141.546 8.78351C141.682 8.42561 141.696 8.03472 141.585 7.66872C141.474 7.30271 141.245 6.98105 140.931 6.75141C140.82 6.67246 140.699 6.60654 140.572 6.55499Z" fill="#F1F1F1"/>
<path d="M228.913 53.7681C228.092 53.4212 227.432 52.7935 227.057 52.0044C226.682 51.2154 226.619 50.3201 226.88 49.4891C226.923 49.3617 226.949 49.2299 226.96 49.0964C226.984 48.7156 226.881 48.3375 226.666 48.0181C226.451 47.6987 226.136 47.4549 225.767 47.3229C225.399 47.1908 224.996 47.1776 224.619 47.2851C224.242 47.3926 223.91 47.6151 223.674 47.9197C223.592 48.0278 223.525 48.1448 223.471 48.2683C223.114 49.0649 222.467 49.7061 221.655 50.0699C220.842 50.4337 219.919 50.4946 219.063 50.2411C218.932 50.2001 218.796 50.1743 218.659 50.1642C218.267 50.141 217.877 50.2411 217.548 50.4496C217.219 50.6581 216.968 50.9639 216.832 51.3218C216.696 51.6797 216.682 52.0706 216.793 52.4366C216.904 52.8026 217.133 53.1242 217.447 53.3539C217.558 53.4329 217.679 53.4988 217.806 53.5503C218.626 53.8973 219.287 54.525 219.662 55.3141C220.036 56.1031 220.099 56.9983 219.838 57.8294C219.796 57.9568 219.769 58.0886 219.759 58.2221C219.735 58.6028 219.838 58.9809 220.053 59.3004C220.268 59.6198 220.583 59.8636 220.951 59.9956C221.32 60.1276 221.723 60.1409 222.1 60.0334C222.477 59.9259 222.808 59.7033 223.045 59.3987C223.126 59.2906 223.194 59.1736 223.247 59.0501C223.605 58.2535 224.251 57.6123 225.064 57.2485C225.877 56.8848 226.799 56.8238 227.655 57.0773C227.786 57.1183 227.922 57.1441 228.06 57.1543C228.452 57.1775 228.842 57.0774 229.171 56.8689C229.5 56.6604 229.751 56.3545 229.887 55.9966C230.023 55.6387 230.036 55.2479 229.926 54.8819C229.815 54.5158 229.586 54.1942 229.272 53.9645C229.161 53.8856 229.04 53.8197 228.913 53.7681Z" fill="#F1F1F1"/>
<path d="M57.778 260.381C55.6111 265.124 55.4171 270.533 57.2386 275.419C59.0602 280.305 62.7481 284.268 67.4911 286.434C72.2341 288.601 77.6436 288.795 82.5297 286.974C87.4158 285.152 91.3781 281.464 93.5451 276.721C98.0575 266.845 90.9853 261.141 81.1085 256.629C71.2318 252.116 62.2904 250.504 57.778 260.381Z" fill="white"/>
</svg>
