<svg width="278" height="377" viewBox="0 0 278 377" fill="none" xmlns="http://www.w3.org/2000/svg">
<path d="M136.819 318.663C184.477 318.663 223.111 280.029 223.111 232.371C223.111 184.713 184.477 146.078 136.819 146.078C89.1608 146.078 50.5264 184.713 50.5264 232.371C50.5264 280.029 89.1608 318.663 136.819 318.663Z" fill="#2F2E41"/>
<path d="M75.3475 338.653L51.5024 327.759L72.9084 277.628L96.7535 288.522L75.3475 338.653Z" fill="#2F2E41"/>
<path d="M144.443 310.31L120.598 299.416L101.08 342.138L124.924 353.032L144.443 310.31Z" fill="#2F2E41"/>
<path d="M128.596 372.123C132.282 369.499 129.598 359.404 122.601 349.574C115.604 339.745 106.944 333.904 103.258 336.528C99.572 339.152 102.256 349.247 109.253 359.076C116.25 368.906 124.911 374.747 128.596 372.123Z" fill="#2F2E41"/>
<path d="M80.0125 358.198C83.6984 355.574 81.0143 345.479 74.0172 335.65C67.0202 325.82 58.3599 319.979 54.674 322.603C50.9881 325.227 53.6722 335.322 60.6692 345.152C67.6663 354.981 76.3265 360.822 80.0125 358.198Z" fill="#2F2E41"/>
<path d="M147.884 242.9C164.172 242.9 177.376 229.696 177.376 213.408C177.376 197.12 164.172 183.916 147.884 183.916C131.596 183.916 118.392 197.12 118.392 213.408C118.392 229.696 131.596 242.9 147.884 242.9Z" fill="white"/>
<path d="M137.24 209.987C142.669 209.987 147.071 205.586 147.071 200.156C147.071 194.727 142.669 190.325 137.24 190.325C131.811 190.325 127.409 194.727 127.409 200.156C127.409 205.586 131.811 209.987 137.24 209.987Z" fill="#3F3D56"/>
<path d="M88.2137 264.502C89.1213 257.076 70.6827 248.713 47.0298 245.822C23.3769 242.93 3.46662 246.606 2.55897 254.031C1.65132 261.457 20.09 269.82 43.7429 272.711C67.3958 275.603 87.306 271.927 88.2137 264.502Z" fill="#2F2E41"/>
<path d="M90.191 204.281C97.2968 201.942 97.0192 181.697 89.5709 159.063C82.1226 136.428 70.3241 119.974 63.2183 122.312C56.1125 124.65 56.3901 144.895 63.8384 167.53C71.2867 190.165 83.0852 206.619 90.191 204.281Z" fill="#2F2E41"/>
<path d="M250.528 23.6534C253.78 42.6332 241.907 60.6727 223.459 66.1411C220.708 57.4166 215.283 50.0167 208.232 44.6823C212.865 32.1899 224.139 22.4201 238.596 20.0856L244.104 19.1963C247.15 18.7044 250.021 20.6962 250.528 23.6534ZM164.237 48.5751C163.73 45.6179 165.782 42.8313 168.829 42.3394L174.336 41.4501C195.627 38.0124 215.762 51.9826 219.303 72.6498L220.219 77.9963L224.8 104.728C225.307 107.686 223.255 110.472 220.208 110.964C217.162 111.456 214.291 109.464 213.784 106.507L209.204 79.7749C187.913 83.2126 167.779 69.2423 164.237 48.5751Z" fill="#7EAF57"/>
<path d="M143.622 59.7389C146.911 59.7389 149.578 57.1506 149.578 53.9577C149.578 50.7648 146.911 48.1765 143.622 48.1765C140.333 48.1765 137.667 50.7648 137.667 53.9577C137.667 57.1506 140.333 59.7389 143.622 59.7389Z" fill="#7EAF57"/>
<path d="M141.92 97.127C141.099 96.7801 140.438 96.1524 140.064 95.3633C139.689 94.5743 139.626 93.679 139.887 92.848C139.93 92.7205 139.956 92.5887 139.967 92.4553C139.991 92.0745 139.887 91.6964 139.673 91.377C139.458 91.0575 139.143 90.8138 138.774 90.6817C138.405 90.5497 138.003 90.5365 137.626 90.644C137.249 90.7515 136.917 90.974 136.681 91.2786C136.599 91.3867 136.531 91.5037 136.478 91.6272C136.121 92.4238 135.474 93.065 134.661 93.4288C133.849 93.7926 132.926 93.8535 132.07 93.6C131.939 93.559 131.803 93.5332 131.666 93.5231C131.273 93.4999 130.884 93.6 130.555 93.8085C130.226 94.017 129.975 94.3228 129.839 94.6807C129.703 95.0386 129.689 95.4295 129.8 95.7955C129.91 96.1615 130.14 96.4831 130.453 96.7128C130.565 96.7918 130.685 96.8577 130.813 96.9092C131.633 97.2562 132.294 97.8839 132.669 98.673C133.043 99.462 133.106 100.357 132.845 101.188C132.803 101.316 132.776 101.447 132.766 101.581C132.742 101.962 132.845 102.34 133.06 102.659C133.274 102.979 133.589 103.222 133.958 103.355C134.327 103.487 134.73 103.5 135.107 103.392C135.484 103.285 135.815 103.062 136.052 102.758C136.133 102.65 136.201 102.533 136.254 102.409C136.611 101.612 137.258 100.971 138.071 100.607C138.884 100.244 139.806 100.183 140.662 100.436C140.793 100.477 140.929 100.503 141.067 100.513C141.459 100.536 141.848 100.436 142.177 100.228C142.507 100.019 142.758 99.7134 142.894 99.3555C143.03 98.9976 143.043 98.6067 142.933 98.2407C142.822 97.8747 142.593 97.5531 142.279 97.3234C142.167 97.2445 142.047 97.1786 141.92 97.127Z" fill="#F1F1F1"/>
<path d="M188.572 6.55499C187.751 6.20806 187.091 5.58033 186.716 4.79129C186.341 4.00226 186.279 3.10699 186.54 2.27593C186.582 2.14852 186.609 2.01672 186.619 1.88326C186.643 1.5025 186.54 1.1244 186.325 0.804963C186.11 0.485524 185.795 0.241742 185.426 0.10972C185.058 -0.0223029 184.655 -0.0355447 184.278 0.071964C183.901 0.179473 183.57 0.402003 183.333 0.706605C183.252 0.814669 183.184 0.931679 183.131 1.0552C182.773 1.85179 182.127 2.49301 181.314 2.85679C180.501 3.22057 179.579 3.2815 178.723 3.02801C178.591 2.98699 178.455 2.96116 178.318 2.95103C177.926 2.92786 177.536 3.02796 177.207 3.23646C176.878 3.44497 176.627 3.75081 176.491 4.10869C176.355 4.46658 176.341 4.85748 176.452 5.22348C176.563 5.58948 176.792 5.91111 177.106 6.14076C177.217 6.21973 177.338 6.28567 177.465 6.33721C178.286 6.68415 178.946 7.3119 179.321 8.10094C179.696 8.88997 179.758 9.78521 179.497 10.6163C179.455 10.7437 179.428 10.8755 179.418 11.0089C179.394 11.3897 179.497 11.7678 179.712 12.0872C179.927 12.4067 180.242 12.6505 180.611 12.7825C180.979 12.9145 181.382 12.9277 181.759 12.8202C182.136 12.7127 182.467 12.4902 182.704 12.1856C182.785 12.0775 182.853 11.9605 182.906 11.837C183.264 11.0404 183.91 10.3992 184.723 10.0354C185.536 9.67163 186.458 9.61067 187.314 9.86416C187.446 9.90516 187.581 9.931 187.719 9.94114C188.111 9.96433 188.501 9.86427 188.83 9.65577C189.159 9.44726 189.41 9.1414 189.546 8.78351C189.682 8.42561 189.696 8.03472 189.585 7.66872C189.474 7.30271 189.245 6.98105 188.931 6.75141C188.82 6.67246 188.699 6.60654 188.572 6.55499Z" fill="#F1F1F1"/>
<path d="M276.913 53.7681C276.092 53.4212 275.432 52.7935 275.057 52.0044C274.682 51.2154 274.619 50.3201 274.88 49.4891C274.923 49.3617 274.949 49.2299 274.96 49.0964C274.984 48.7156 274.881 48.3375 274.666 48.0181C274.451 47.6987 274.136 47.4549 273.767 47.3229C273.399 47.1908 272.996 47.1776 272.619 47.2851C272.242 47.3926 271.91 47.6151 271.674 47.9197C271.592 48.0278 271.525 48.1448 271.471 48.2683C271.114 49.0649 270.467 49.7061 269.655 50.0699C268.842 50.4337 267.919 50.4946 267.063 50.2411C266.932 50.2001 266.796 50.1743 266.659 50.1642C266.267 50.141 265.877 50.2411 265.548 50.4496C265.219 50.6581 264.968 50.9639 264.832 51.3218C264.696 51.6797 264.682 52.0706 264.793 52.4366C264.904 52.8026 265.133 53.1242 265.447 53.3539C265.558 53.4329 265.679 53.4988 265.806 53.5503C266.626 53.8973 267.287 54.525 267.662 55.3141C268.036 56.1031 268.099 56.9983 267.838 57.8294C267.796 57.9568 267.769 58.0886 267.759 58.2221C267.735 58.6028 267.838 58.9809 268.053 59.3004C268.268 59.6198 268.583 59.8636 268.951 59.9956C269.32 60.1276 269.723 60.1409 270.1 60.0334C270.477 59.9259 270.808 59.7033 271.045 59.3987C271.126 59.2906 271.194 59.1736 271.247 59.0501C271.605 58.2535 272.251 57.6123 273.064 57.2485C273.877 56.8848 274.799 56.8238 275.655 57.0773C275.786 57.1183 275.922 57.1441 276.06 57.1543C276.452 57.1775 276.842 57.0774 277.171 56.8689C277.5 56.6604 277.751 56.3545 277.887 55.9966C278.023 55.6387 278.036 55.2479 277.926 54.8819C277.815 54.5158 277.586 54.1942 277.272 53.9645C277.161 53.8856 277.04 53.8197 276.913 53.7681Z" fill="#F1F1F1"/>
<path d="M105.778 260.381C103.611 265.124 103.417 270.533 105.239 275.419C107.06 280.305 110.748 284.268 115.491 286.434C120.234 288.601 125.644 288.795 130.53 286.974C135.416 285.152 139.378 281.464 141.545 276.721C146.057 266.845 138.985 261.141 129.109 256.629C119.232 252.116 110.29 250.504 105.778 260.381Z" fill="white"/>
</svg>
